<?xml version="1.0" encoding="UTF-8"?><svg id="Layer_2" xmlns="http://www.w3.org/2000/svg" xmlns:xlink="http://www.w3.org/1999/xlink" viewBox="0 0 256.3 112.81"><defs><style>.cls-1{clip-path:url(#clippath);}.cls-2{fill:none;}.cls-2,.cls-3,.cls-4,.cls-5,.cls-6,.cls-7,.cls-8,.cls-9,.cls-10,.cls-11,.cls-12,.cls-13,.cls-14,.cls-15,.cls-16,.cls-17,.cls-18,.cls-19,.cls-20,.cls-21,.cls-22,.cls-23,.cls-24,.cls-25,.cls-26,.cls-27,.cls-28,.cls-29,.cls-30,.cls-31,.cls-32,.cls-33,.cls-34,.cls-35,.cls-36,.cls-37,.cls-38,.cls-39,.cls-40,.cls-41,.cls-42,.cls-43,.cls-44,.cls-45,.cls-46,.cls-47,.cls-48,.cls-49,.cls-50,.cls-51,.cls-52,.cls-53,.cls-54,.cls-55,.cls-56,.cls-57,.cls-58,.cls-59,.cls-60,.cls-61,.cls-62,.cls-63,.cls-64,.cls-65,.cls-66,.cls-67,.cls-68,.cls-69,.cls-70,.cls-71,.cls-72,.cls-73,.cls-74,.cls-75,.cls-76,.cls-77,.cls-78,.cls-79,.cls-80,.cls-81,.cls-82,.cls-83,.cls-84,.cls-85,.cls-86,.cls-87,.cls-88,.cls-89,.cls-90,.cls-91,.cls-92,.cls-93,.cls-94,.cls-95,.cls-96,.cls-97,.cls-98,.cls-99,.cls-100,.cls-101,.cls-102,.cls-103,.cls-104,.cls-105,.cls-106,.cls-107,.cls-108,.cls-109,.cls-110,.cls-111,.cls-112,.cls-113,.cls-114,.cls-115,.cls-116,.cls-117,.cls-118,.cls-119,.cls-120,.cls-121,.cls-122,.cls-123,.cls-124,.cls-125,.cls-126,.cls-127,.cls-128,.cls-129,.cls-130,.cls-131,.cls-132,.cls-133,.cls-134,.cls-135,.cls-136,.cls-137,.cls-138,.cls-139,.cls-140,.cls-141,.cls-142{stroke-width:0px;}.cls-143{clip-path:url(#clippath-1);}.cls-144{clip-path:url(#clippath-2);}.cls-3{fill:#f8f4eb;}.cls-4{fill:#625160;}.cls-5{fill:#7b88b9;}.cls-6{fill:#4b0c04;}.cls-7{fill:#8a0e0b;}.cls-8{fill:#a39994;}.cls-9{fill:#a29893;}.cls-10{fill:#a3775e;}.cls-11{fill:#272a3b;}.cls-12{fill:#0a0b11;}.cls-13{fill:#1b0f10;}.cls-14{fill:#0e1621;}.cls-15{fill:#142535;}.cls-16{fill:#a89d98;}.cls-17{fill:#aa2a23;}.cls-18{fill:#c72d2c;}.cls-19{fill:#c4b7ad;}.cls-20{fill:#c57c10;}.cls-21{fill:#c82d2c;}.cls-22{fill:#c62d2c;}.cls-23{fill:#c47b10;}.cls-24{fill:#c3b6ac;}.cls-25{fill:#c47a10;}.cls-26{fill:#d28b14;}.cls-27{fill:#d1c3b7;}.cls-28{fill:#d2c4b8;}.cls-29{fill:#cbbeb3;}.cls-30{fill:#cd2e2e;}.cls-31{fill:#cb2e2d;}.cls-32{fill:#d0c2b7;}.cls-33{fill:#c9bcb1;}.cls-34{fill:#cc2e2e;}.cls-35{fill:#cab2a1;}.cls-36{fill:#cabdb2;}.cls-37{fill:#c52d2b;}.cls-38{fill:#ccbfb4;}.cls-39{fill:#b0a59e;}.cls-40{fill:#c92e2d;}.cls-41{fill:#d8cabd;}.cls-42{fill:#ada29c;}.cls-43{fill:#af2b24;}.cls-44{fill:#c5b8ae;}.cls-45{fill:#c6b9af;}.cls-46{fill:#dd2417;}.cls-47{fill:#e2d5c3;}.cls-48{fill:#c8bbb0;}.cls-49{fill:#ca2e2d;}.cls-50{fill:#c7bab0;}.cls-51{fill:#b22b25;}.cls-52{fill:#d6c8bb;}.cls-53{fill:#d4c6ba;}.cls-54{fill:#d5c7bb;}.cls-55{fill:#d3c5b9;}.cls-56{fill:#be7010;}.cls-57{fill:#bdb0a8;}.cls-58{fill:#c02d2a;}.cls-59{fill:#beb1a8;}.cls-60{fill:#bf7310;}.cls-61{fill:#bf7110;}.cls-62{fill:#c17610;}.cls-63{fill:#c17510;}.cls-64{fill:#c0b3aa;}.cls-65{fill:#a69c96;}.cls-66{fill:#a9938b;}.cls-67{fill:#c22d2a;}.cls-68{fill:#aba09a;}.cls-69{fill:#ad2b24;}.cls-70{fill:#c12d2a;}.cls-71{fill:#c07410;}.cls-72{fill:#c31312;}.cls-73{fill:#bf2c29;}.cls-74{fill:#bfb2a9;}.cls-75{fill:#be2c29;}.cls-76{fill:#bd6f10;}.cls-77{fill:#bd6e10;}.cls-78{fill:#b42b26;}.cls-79{fill:#b2a7a0;}.cls-80{fill:#a49a95;}.cls-81{fill:#afa49d;}.cls-82{fill:#b32b26;}.cls-83{fill:#aca19b;}.cls-84{fill:#d7c9bc;}.cls-85{fill:#b02b25;}.cls-86{fill:#aea39d;}.cls-87{fill:#b1a69f;}.cls-88{fill:#bcafa7;}.cls-89{fill:#a92a22;}.cls-90{fill:#aa9f99;}.cls-91{fill:#bc6d10;}.cls-92{fill:#ac2a23;}.cls-93{fill:#bd2c29;}.cls-94{fill:#bc6c10;}.cls-95{fill:#bfa28b;}.cls-96{fill:#a79d97;}.cls-97{fill:#ab2a23;}.cls-98{fill:#a99e99;}.cls-99{fill:#b12b25;}.cls-100{fill:#ae2b24;}.cls-101{fill:#a82a22;}.cls-102{fill:#b52b26;}.cls-103{fill:#b3a8a1;}.cls-104{fill:#d07323;}.cls-105{fill:#cfc1b6;}.cls-106{fill:#a59b96;}.cls-107{fill:#cec1b5;}.cls-108{fill:#cdc0b4;}.cls-109{fill:#c2740c;}.cls-110{fill:#b62c27;}.cls-111{fill:#ba6a10;}.cls-112{fill:#ba6910;}.cls-113{fill:#b92c28;}.cls-114{fill:#b7aca4;}.cls-115{fill:#b96810;}.cls-116{fill:#b6aba3;}.cls-117{fill:#b72c27;}.cls-118{fill:#b8ada5;}.cls-119{fill:#9e9490;}.cls-120{fill:#b9aea5;}.cls-121{fill:#bb2c28;}.cls-122{fill:#a19792;}.cls-123{fill:#c37910;}.cls-124{fill:#c2b5ac;}.cls-125{fill:#c42d2b;}.cls-126{fill:#b82c27;}.cls-127{fill:#b4a9a1;}.cls-128{fill:#c27710;}.cls-129{fill:#b5aaa2;}.cls-130{fill:#c32d2b;}.cls-131{fill:#c27810;}.cls-132{fill:#c1b4ab;}.cls-133{fill:#bb6b10;}.cls-134{fill:#baafa6;}.cls-135{fill:#bc2c28;}.cls-136{fill:#8e726d;}.cls-137{fill:#9f9591;}.cls-138{fill:#a09692;}.cls-139{fill:#ed3a1e;}.cls-140{fill:#f1c121;}.cls-141{fill:#f6d92a;}.cls-142{fill:#e8a412;}</style><clipPath id="clippath"><path class="cls-2" d="m201.55,44.48c.19-.02.15.15.16.16-.01.11.02.26,0,.31-1.69,3.88-3.46,7.86-5.44,11.59-.23.42-1.19,1.62-1.24,1.71-.09.16.16.3.16.31-1.27,2.27-2.68,4.51-4.2,6.61-.68-.51-1.36-1.01-2.02-1.56-.17-3.94-.1-7.9.47-11.82,1-1.25,1.88-2.59,2.8-3.89,1.07.16.69-.39.86-.47.22-.1,1.4.02,3.11-1.24.67.43,1.99-.04,1.94.23-1.74,1.82,1.4-.99,3.42-1.94Z"/></clipPath><clipPath id="clippath-1"><path class="cls-2" d="m169.36,33.12c-.49,1.54,2.44,1.98,4.28,3.11,2.29,1.41,4.37,3.18,6.61,4.67-4.18-.22-8.41-.08-12.6-.16-.01,0,.04-.17-.16-.16l-7.62-5.91c3.15-.63,6.26-1.29,9.49-1.56Z"/></clipPath><clipPath id="clippath-2"><path class="cls-2" d="m199.22,27.83c-.42,1.46-.51,2.81-1.24,4.2-2.03-.06-16.3.19-17.03.62-.13.08-.13.39,0,.47.62.37,12.64.09,14.39.47-3.94,2.05-7.42,5.22-11.04,7.78-1.67-.11-3.41-.43-4.04-.47-2.24-1.48-4.32-3.26-6.61-4.67-1.84-1.13-4.77-1.57-4.28-3.11h.54c2.63-2.09,5.36-4.29,8.32-5.91,1.64-.9,12.74-5.64,13.76-5.44l7.23,6.07Z"/></clipPath></defs><g id="Layer_1-2"><path class="cls-13" d="m224.86,24.69c0-.59-.25-.92-.52-1.37-1.03,0-2.08-.83-2.96-1.15-.14-.05-.21.24-.44.16-.7-.25-.7-.61-.74-.62-.06-.02-.14.21-1.21-.08-.79-.21-2.63-.99-2.72-.85-.08,3.55,5.89,3.59,8.64,4.49.16-.08-.05-.13-.05-.58Z"/><path class="cls-139" d="m208.34,3.84c0,.09.32.58,0,1.08-.27.44-7.25,4.32-8.16,5.39-7.26,1.4-5.27,2.83-8.01,9.18,2.8-.18,4.64-2.42,9.23-2.26-.54-.76.47-2.36.89-3.81.43-1.48,1.26-6.22,2.21-5.7.05.03.33.98.32,1.1h.16q1.94-1.7,3.89-3.42c-.66-.66,2.24-3.08,2.58-5.31-.03-.58-3.09,1.83-3.16,2.04-.1.31.09.9.05,1.71Z"/><path class="cls-7" d="m201.4,17.22c-4.59-.16-6.42,2.08-9.23,2.26,0,.27.43.59.59.76,1.3-.62,3.69-.27,5.6-.35.91-.04,2.62-.39,3.69-.47l-.1-.91c-.13-.17-.61-.97-.25-1.1l-.31-.2Z"/><path class="cls-72" d="m211.93,9.83c-.85,3.17-2.1,6.44-2.7,9.53.58.13,1.52.02,2.06.14.89-2.82,1.7-9.38,3.75-9.64.34.34-1.94,8.78-2.33,9.91.47.4,1.07.16,1.57.28l2.47-9.54c.72,1.33,1.96,2.29,1.78,3.09q-1.27,3.47-2.53,6.93c.44.14.29.19.31.2.47.16.88.22.94.24.87-2.65,1.1-5.71,2.76-7.91-2.1-2.37-2.47-3.3-5.97-5.97-.7,2.35-.65,5.04-2.09,2.74Z"/><path class="cls-72" d="m221.27,22.5c.81.3,1.77,1.08,2.71,1.08.24.43.47.74.47,1.29.25-.03.41.12.45.39,1.47-.72.21-4.88.49-7.43-.85-1.37-1.57-1.77-2.69-2.61l-1.44,7.28Z"/><path class="cls-72" d="m211.46.09c-.34,2.23-3.24,4.65-2.58,5.31l-3.89,3.43c.13.28,1.38.33,1.57.28,1.15-.26,2.35-2.64,3.1-3.57.67-.09.74.24.78.23,1.35-.44,2.61-1.19,4.06-1.17.15-3.51-.12-3.65-3.04-4.52Z"/><path class="cls-72" d="m217.24,20.97c.09.03,1.12.9,1.71.65-.07-.63,1.58-5.95,2.06-7.05-.32-.53-.61-1.05-1.01-1.51-1.65,2.19-1.89,5.26-2.76,7.91Z"/><path class="cls-6" d="m210.44,5.78c-.36,2.63-2.06,4.56,0,4.85.3-.87,1.4-4.62,2.07-4.72.02,0,.28.14.46.21l1.53-1.52c-1.45-.02-2.71.73-4.06,1.17Z"/><path class="cls-72" d="m221.77,14.98l-1.59,7.09s.03.35.68.58c.21.08.28-.2.41-.15l1.44-7.28c-.3-.22-.9-.21-.94-.24Z"/><path class="cls-72" d="m221,14.57c-.48,1.1-2.14,6.43-2.06,7.05,0,.02.22-.05.13.37.98.27,1.06.06,1.11.07l1.59-7.09c-.24-.17-.47-.39-.77-.41Z"/><path class="cls-7" d="m211.93,9.83c1.44,2.3,1.39-.39,2.09-2.74-.23-.18-.46-.73-1.05-.97-.18-.07-.44-.21-.46-.21.47,2.65-.36,3.09-.58,3.92Z"/><path class="cls-46" d="m202.19,17.45c.13.02,1.11.42,2.5.71l1.88-9.04c-.19.04-1.44,0-1.57-.28h-.16c-.02.44-2.43,7.25-2.64,8.62Z"/><path class="cls-139" d="m201.4,17.22l.31.2c.16.02.32,0,.48.03.21-1.37,2.63-8.18,2.64-8.63,0-.12-.28-1.07-.32-1.1-.95-.52-1.78,4.21-2.21,5.7-.42,1.45-1.43,3.04-.89,3.81Z"/><path class="cls-6" d="m201.71,17.42c-.37.13.12.93.25,1.1.64.84.61.24.98.78,3.73.92,7.38,1.5,11.18,1.82.41.03,1.73,1.02,2.18-.39-.02,0,.13-.06-.31-.2-.54-.17-1.17-.34-1.72-.47-.5-.12-1.11.11-1.57-.28-.35.2-1.19-.22-1.41-.27-.54-.12-1.48-.01-2.06-.14-.71-.15-1.18-.43-1.24-.44-.58-.12-1.24-.03-1.82-.12-.32-.22-.35-.38-.37-.38-.39-.08-.73-.18-1.1-.25-1.39-.29-2.37-.68-2.5-.71-.15-.03-.32-.01-.48-.03Z"/><path class="cls-139" d="m214.27,20.05c.55.14,1.18.3,1.72.47q1.27-3.47,2.53-6.93c.18-.8-1.06-1.75-1.78-3.09l-2.47,9.54Z"/><path class="cls-139" d="m210.44,10.63c-.93,2.71-1.6,5.55-2.46,8.29.06.01.54.29,1.24.44.6-3.09,1.85-6.36,2.7-9.53.22-.83,1.05-1.27.58-3.92-.67.1-1.77,3.85-2.07,4.72Z"/><path class="cls-139" d="m211.28,19.5c.23.05,1.06.47,1.41.27.4-1.14,2.67-9.58,2.33-9.91-2.05.25-2.85,6.82-3.75,9.64Z"/><path class="cls-72" d="m209.66,5.54l-3.88,12.87s.05.16.37.38c.59.09,1.25,0,1.82.12.87-2.74,1.53-5.57,2.46-8.29-2.06-.29-.35-2.22,0-4.85-.04.01-.11-.32-.78-.23Z"/><path class="cls-139" d="m206.56,9.11l-1.88,9.04c.37.08.71.18,1.1.25l3.88-12.87c-.76.93-1.95,3.31-3.1,3.57Z"/><path class="cls-12" d="m7.09,64.57H.57v-4.83h19.15v4.83h-6.5v35.65h-6.14v-35.65Z"/><path class="cls-12" d="m28.4,100.58c-1.04,0-2.09-.15-3.15-.46-1.06-.31-2.04-.94-2.93-1.88s-1.61-2.38-2.15-4.3c-.54-1.92-.81-4.49-.81-7.72v-5.12c0-3.18.28-5.69.83-7.55.55-1.86,1.28-3.24,2.18-4.15.9-.91,1.88-1.5,2.94-1.78,1.06-.28,2.09-.41,3.11-.41s1.99.13,3.03.39,2.01.84,2.89,1.73c.89.89,1.6,2.28,2.16,4.15.55,1.87.83,4.41.83,7.62v5.12c0,3.18-.28,5.72-.85,7.62-.57,1.91-1.3,3.34-2.2,4.31-.9.97-1.87,1.62-2.9,1.94-1.04.32-2.03.49-2.97.49Zm.05-4.46c1.07,0,1.82-.59,2.24-1.78.42-1.18.63-3.3.63-6.35v-8.13c0-3.07-.21-5.2-.63-6.4s-1.17-1.8-2.24-1.8-1.91.6-2.37,1.8-.69,3.33-.69,6.4v8.13c0,3.05.23,5.17.69,6.35.46,1.19,1.25,1.78,2.37,1.78Z"/><path class="cls-12" d="m48.93,100.6c-.55,0-1.22-.1-2-.31s-1.56-.68-2.32-1.43c-.77-.75-1.41-1.92-1.92-3.51-.51-1.59-.77-3.76-.77-6.53v-9.88c0-2.78.25-4.96.76-6.54.5-1.58,1.13-2.74,1.88-3.47.75-.73,1.51-1.2,2.26-1.4.76-.2,1.38-.3,1.87-.3,1.55,0,2.8.4,3.76,1.21s1.7,1.65,2.24,2.54l.57-3.39h4.67v43.21h-5.97v-8.7l.17-3.98c-.54.68-1.22,1.26-2.05,1.75-.83.49-1.88.73-3.14.73Zm2.04-4.88c.79,0,1.42-.24,1.9-.72.47-.48.84-1.02,1.09-1.62v-18.89c-.3-.65-.7-1.21-1.2-1.68-.5-.47-1.1-.71-1.81-.71-.58,0-1.1.16-1.55.47-.45.32-.81.9-1.07,1.75-.26.85-.39,2.09-.39,3.72v11.73c0,1.61.13,2.85.39,3.71.26.86.62,1.45,1.08,1.77s.98.47,1.56.47Z"/><path class="cls-12" d="m65.99,67.58h6v24.01c0,1.44.22,2.44.66,3,.44.56,1.09.84,1.94.84,1.26,0,2.36-.64,3.29-1.92v-25.93h6v32.64h-4.58l-.59-3.48h-.02c-.93,1.49-1.99,2.5-3.16,3.05-1.18.54-2.37.82-3.57.82-1.9,0-3.37-.67-4.41-2-1.04-1.33-1.56-3.34-1.56-6.01v-25.01Z"/><path class="cls-12" d="m89.2,86.85v-6.16c0-2.5.21-4.57.64-6.21.43-1.64.99-2.95,1.7-3.93.7-.98,1.48-1.71,2.32-2.18.84-.47,1.69-.79,2.52-.94.84-.15,1.6-.22,2.3-.22,1.44,0,2.77.3,3.98.91s2.19,1.65,2.93,3.13c.73,1.48,1.1,3.53,1.1,6.15,0,1.31-.07,2.65-.21,4.02-.14,1.37-.33,2.57-.57,3.62h-10.69v3.32c0,2.84.24,4.85.72,6.02.48,1.17,1.4,1.75,2.76,1.75.74,0,1.41-.32,2.02-.96.6-.64.9-1.82.9-3.54v-1.42h4.93v1.49c0,3.1-.74,5.35-2.22,6.77s-3.61,2.12-6.41,2.12-4.97-1.07-6.47-3.22c-1.5-2.15-2.25-5.65-2.25-10.5Zm11.9-5.85c.03-.35.06-.87.07-1.58.02-.7.02-1.27.02-1.69,0-2.17-.23-3.71-.69-4.65-.46-.93-1.18-1.41-2.18-1.42-1.06,0-1.84.53-2.35,1.6-.51,1.07-.76,3.01-.76,5.82v1.92h5.88Z"/><path class="cls-12" d="m121.15,100.58c-.98,0-2.05-.14-3.21-.43-1.16-.28-2.26-.88-3.31-1.78-1.04-.9-1.9-2.26-2.56-4.07-.66-1.81-1-4.23-1-7.27v-14.34c0-2.43.23-4.46.68-6.08s1.04-2.92,1.78-3.89c.74-.97,1.55-1.7,2.44-2.18.89-.48,1.79-.8,2.68-.95.89-.15,1.72-.22,2.48-.22,2.09,0,3.74.39,4.95,1.16s2.09,1.81,2.62,3.12.79,2.74.79,4.3c0,.87-.07,1.67-.2,2.41-.13.74-.29,1.54-.46,2.43h-4.74v-1.94c0-4.44-1.04-6.66-3.13-6.66-1.12,0-1.98.49-2.57,1.46-.59.97-.89,2.75-.89,5.34v18.25c0,2.51.3,4.23.89,5.14.59.92,1.51,1.38,2.76,1.38.87,0,1.59-.37,2.16-1.1.57-.73.85-1.92.85-3.54v-3.84h5.38v3.75c0,3.24-.72,5.64-2.16,7.21-1.44,1.56-3.52,2.35-6.23,2.35Z"/><path class="cls-12" d="m138.46,59.74h6.92l7.56,40.49h-6.16l-1.11-7.25h-7.49l-1.07,7.25h-6.19l7.54-40.49Zm6.49,28.61l-2.89-20.27h-.26l-2.92,20.27h6.07Z"/><path class="cls-12" d="m156.61,59.74h4.86l9.88,26.62h.14c-.06-.84-.15-1.77-.25-2.81s-.19-2.28-.27-3.73-.12-3.22-.12-5.31v-14.77h5.45v40.49h-4.91l-9.84-25.91h-.19c.08.95.17,1.98.26,3.1.09,1.12.18,2.54.26,4.24.08,1.71.12,3.93.12,6.66v11.9h-5.41v-40.49Z"/><path class="cls-15" d="m209.8,107.62c1.6-.94,3.59-1.38,4.98-2.49,3.93-1,7.75-3.03,11.66-4.35.07.31.25.7.16,1.01-.31,1.03-10.61,6.12-12.52,5.37,0,.86-4.79,1.13-4.28.47Z"/><path class="cls-11" d="m199.06,42.61c.52.04,1.04.12,1.56.16-2.21,1.59-4.74,2.72-7.31,3.58.59-.83,1.96-3.31,2.64-3.73l.39-.31c.9.18,1.81.23,2.72.31Z"/><path class="cls-12" d="m223.17,23.63c.71.67.3,1.2.78,1.09l-.16,1.63c1.65,4.24,2.72,8.79,4.51,12.91l-.62,9.8c.45.37.72.88,1.09,1.32-.11.42-.85-.79-1.17-.93-.45-.2-7.9-1.38-9.56-2.18l-.16-.16,5.6-10.65c-2.65-3.85-5.76-7.43-8.4-11.28-1.06-1.55-2.39-4.46-2.64-4.82-1.05-1.51-3.73-2.83-5.44-3.42,4.05.42,13.44,4.1,16.17,6.69Z"/><path class="cls-12" d="m188.96,63.6c.18,4.11.78,8.28,1.63,12.29.79.25,1.63.05,2.41.16,5.18.68,10.44.84,15.63,1.4.24-.17.22-.3.23-.31.73-.34,8.35-7.55,9.95-8.94l-.62-.86c1.48.84.66-1.65.78-3.81.04-.69.18-2.19.47-2.8-.59-1.7.52-4.53-.47-4.59l.16-.47c.65-.17.76-.05,1.09,0,2.93.41,7.3,2.45,10.11,3.73l.31.08c.41,4.3,1.61,8.47,1.87,12.6.09.12.3.26.31.31.91,5.75,1.75,11.46,1.87,17.26,0,.06.31,1.03.31,1.09,0,.89-.27,5.73-.78,6.14-2.04-.99-2.28-.29-4.59-.16-.19.96-1.37,5.38-.78,5.91l7.62,2.49c.2.28-1.59.57-2.72.78-4.61.84-14.4,1.68-19.44,2.02-3.08.21-6.56.89-4.51-.31-.51.67,4.27.4,4.28-.47,1.91.75,12.21-4.34,12.52-5.37.09-.31-.09-.7-.16-1.01-.23-1.01-1.38-2.34-2.1-3.11q-8.79-.39-17.57-.78c-.65.66-4.34,3.49-4.51,3.73-.17.24-.37.16,0,.47,4.49.83,9.09,1.45,13.45,2.72,0,.07-.94.36-1.09.39-1.43.3-25.05,1.79-29.24,2.02-.97.05-2.19.22-3.11,0,.04-.03-.08-.31.08-.47.35-.35,7.98-2.42,9.25-2.95l8.48-2.8,1.63-3.65c-4.89-4.5-10.25-13.24-13.22-19.21-2.21-4.44-3.6-9.27-4.82-14.07l5.13-10.58.62-.7c-.57,3.92-.64,7.88-.47,11.82Z"/><path class="cls-12" d="m234.99,97.35c-.27-.14-.53-.35-.78-.47.51-.41.78-5.25.78-6.14,0-.06-.31-1.03-.31-1.09-.11-5.8-.96-11.52-1.87-17.26,0-.05-.22-.19-.31-.31-.26-4.13-1.46-8.3-1.87-12.6l-.31-.08c.16-.3.51-.45.78-.62,3.01,9.18,5.19,18.61,7.78,27.92v.93c-1.31,3.23-2.27,6.61-3.89,9.72Z"/><path class="cls-15" d="m228.77,50.38c.73.89,3.02,3.09,4.98,5.44-.19.68.7.42,0,1.24-2.68-2.06-5.67-3.67-8.63-5.29l-4.9,3.89c-.33-.05-.43-.17-1.09,0l-1.09-8.4c1.66.8,9.12,1.98,9.56,2.18.32.14,1.06,1.35,1.17.93Z"/><path class="cls-15" d="m233.75,57.07c-.08.09-1.3.92-1.56,1.09-.34.22-.74.41-1.09.62-.27.17-.62.33-.78.62-2.8-1.28-7.17-3.32-10.11-3.73l4.9-3.89c2.96,1.62,5.96,3.23,8.63,5.29Z"/><path class="cls-14" d="m218.19,67.34c-.24-.14-3.33-3.65-3.42-3.89-.22-.55-.02-.47.16-.93.44-1.14,3.3-4.76,4.04-6.38.99.06-.13,2.89.47,4.59-.29.61-.43,2.11-.47,2.8-.12,2.16.7,4.65-.78,3.81Z"/><path class="cls-12" d="m242.46,75.11c.59.36.29,3.08.31,5.13.02,1.61-.01,3.21,0,4.82-1.91.37-.02,1.25,2.02,3.97,2.03,2.71,7.03,10.44,7.62,10.73.51.24,1.31-.64,1.56-.23-2.9,1.45-6.05,2.5-9.1,3.58-.76-.07-8.45-4.99-9.88-5.75,1.61-3.11,2.57-6.49,3.89-9.72v-.93c-2.58-9.31-4.77-18.74-7.78-27.92.35-.22.75-.4,1.09-.62.92.54,1.47,3.25,1.87,4.12.46,1,1.19,2.41,1.71,3.42.49.95,5.11,8.91,5.44,9.33.33.41.78.67,1.17,1.01.11-.08.09-.74.08-.93Z"/><path class="cls-12" d="m242.77,85.07c3,3.06,6.27,5.86,9.33,8.86.65.64,3.56,3.33,3.73,3.58.02.03-.08.27.47.7,0,.24-1.98,1.14-2.33,1.32-.25-.41-1.05.48-1.56.23-.59-.29-5.59-8.03-7.62-10.73-2.04-2.72-3.93-3.6-2.02-3.97Z"/><path class="cls-12" d="m242.46,75.11c.01.19.03.85-.08.93-.39-.34-.84-.6-1.17-1.01-.34-.42-4.95-8.38-5.44-9.33-.52-1.01-1.25-2.42-1.71-3.42-.4-.88-.94-3.58-1.87-4.12.25-.16,1.48-1,1.56-1.09.7-.83-.19-.57,0-1.24,2.04,2.45,3.95,5,6.07,7.39.38,3.07,2.48,9.65,2.64,11.9Z"/><g class="cls-1"><polygon class="cls-119" points="200.11 44.46 188.78 53.65 188.78 44.46 200.11 44.46"/><polygon class="cls-119" points="200.33 44.46 188.78 53.83 188.78 53.65 200.11 44.46 200.33 44.46"/><polygon class="cls-137" points="200.55 44.46 188.78 54.01 188.78 53.83 200.33 44.46 200.55 44.46"/><polygon class="cls-138" points="200.76 44.46 188.78 54.18 188.78 54.01 200.55 44.46 200.76 44.46"/><polygon class="cls-122" points="200.98 44.46 188.78 54.36 188.78 54.18 200.76 44.46 200.98 44.46"/><polygon class="cls-9" points="201.2 44.46 188.78 54.53 188.78 54.36 200.98 44.46 201.2 44.46"/><polygon class="cls-8" points="201.42 44.46 188.78 54.71 188.78 54.53 201.2 44.46 201.42 44.46"/><polygon class="cls-80" points="201.63 44.46 188.78 54.89 188.78 54.71 201.42 44.46 201.63 44.46"/><polygon class="cls-106" points="201.74 44.54 188.78 55.06 188.78 54.89 201.63 44.46 201.74 44.46 201.74 44.54"/><polygon class="cls-65" points="201.74 44.72 188.78 55.24 188.78 55.06 201.74 44.54 201.74 44.72"/><polygon class="cls-96" points="201.74 44.9 188.78 55.41 188.78 55.24 201.74 44.72 201.74 44.9"/><polygon class="cls-16" points="201.74 45.07 188.78 55.59 188.78 55.41 201.74 44.9 201.74 45.07"/><polygon class="cls-98" points="201.74 45.25 188.78 55.77 188.78 55.59 201.74 45.07 201.74 45.25"/><polygon class="cls-90" points="201.74 45.42 188.78 55.94 188.78 55.77 201.74 45.25 201.74 45.42"/><polygon class="cls-68" points="201.74 45.6 188.78 56.12 188.78 55.94 201.74 45.42 201.74 45.6"/><polygon class="cls-83" points="201.74 45.78 188.78 56.3 188.78 56.12 201.74 45.6 201.74 45.78"/><polygon class="cls-42" points="201.74 45.95 188.78 56.47 188.78 56.3 201.74 45.78 201.74 45.95"/><polygon class="cls-86" points="201.74 46.13 188.78 56.65 188.78 56.47 201.74 45.95 201.74 46.13"/><polygon class="cls-81" points="201.74 46.3 188.78 56.82 188.78 56.65 201.74 46.13 201.74 46.3"/><polygon class="cls-39" points="201.74 46.48 188.78 57 188.78 56.82 201.74 46.3 201.74 46.48"/><polygon class="cls-87" points="201.74 46.66 188.78 57.18 188.78 57 201.74 46.48 201.74 46.66"/><polygon class="cls-79" points="201.74 46.83 188.78 57.35 188.78 57.18 201.74 46.66 201.74 46.83"/><polygon class="cls-103" points="201.74 47.01 188.78 57.53 188.78 57.35 201.74 46.83 201.74 47.01"/><polygon class="cls-127" points="201.74 47.19 188.78 57.7 188.78 57.53 201.74 47.01 201.74 47.19"/><polygon class="cls-129" points="201.74 47.36 188.78 57.88 188.78 57.7 201.74 47.19 201.74 47.36"/><polygon class="cls-116" points="201.74 47.54 188.78 58.06 188.78 57.88 201.74 47.36 201.74 47.54"/><polygon class="cls-114" points="201.74 47.71 188.78 58.23 188.78 58.06 201.74 47.54 201.74 47.71"/><polygon class="cls-118" points="201.74 47.89 188.78 58.41 188.78 58.23 201.74 47.71 201.74 47.89"/><polygon class="cls-120" points="201.74 48.07 188.78 58.58 188.78 58.41 201.74 47.89 201.74 48.07"/><polygon class="cls-134" points="201.74 48.24 188.78 58.76 188.78 58.58 201.74 48.07 201.74 48.24"/><polygon class="cls-88" points="201.74 48.42 188.78 58.94 188.78 58.76 201.74 48.24 201.74 48.42"/><polygon class="cls-57" points="201.74 48.59 188.78 59.11 188.78 58.94 201.74 48.42 201.74 48.59"/><polygon class="cls-59" points="201.74 48.77 188.78 59.29 188.78 59.11 201.74 48.59 201.74 48.77"/><polygon class="cls-74" points="201.74 48.95 188.78 59.47 188.78 59.29 201.74 48.77 201.74 48.95"/><polygon class="cls-64" points="201.74 49.12 188.78 59.64 188.78 59.47 201.74 48.95 201.74 49.12"/><polygon class="cls-132" points="201.74 49.3 188.78 59.82 188.78 59.64 201.74 49.12 201.74 49.3"/><polygon class="cls-124" points="201.74 49.48 188.78 59.99 188.78 59.82 201.74 49.3 201.74 49.48"/><polygon class="cls-24" points="201.74 49.65 188.78 60.17 188.78 59.99 201.74 49.48 201.74 49.65"/><polygon class="cls-19" points="201.74 49.83 188.78 60.35 188.78 60.17 201.74 49.65 201.74 49.83"/><polygon class="cls-44" points="201.74 50 188.78 60.52 188.78 60.35 201.74 49.83 201.74 50"/><polygon class="cls-45" points="201.74 50.18 188.78 60.7 188.78 60.52 201.74 50 201.74 50.18"/><polygon class="cls-50" points="201.74 50.36 188.78 60.87 188.78 60.7 201.74 50.18 201.74 50.36"/><polygon class="cls-48" points="201.74 50.53 188.78 61.05 188.78 60.87 201.74 50.36 201.74 50.53"/><polygon class="cls-33" points="201.74 50.71 188.78 61.23 188.78 61.05 201.74 50.53 201.74 50.71"/><polygon class="cls-36" points="201.74 50.88 188.78 61.4 188.78 61.23 201.74 50.71 201.74 50.88"/><polygon class="cls-29" points="201.74 51.06 188.78 61.58 188.78 61.4 201.74 50.88 201.74 51.06"/><polygon class="cls-38" points="201.74 51.24 188.78 61.76 188.78 61.58 201.74 51.06 201.74 51.24"/><polygon class="cls-108" points="201.74 51.41 188.78 61.93 188.78 61.76 201.74 51.24 201.74 51.41"/><polygon class="cls-107" points="201.74 51.59 188.78 62.11 188.78 61.93 201.74 51.41 201.74 51.59"/><polygon class="cls-105" points="201.74 51.76 188.78 62.28 188.78 62.11 201.74 51.59 201.74 51.76"/><polygon class="cls-32" points="201.74 51.94 188.78 62.46 188.78 62.28 201.74 51.76 201.74 51.94"/><polygon class="cls-27" points="201.74 52.12 188.78 62.64 188.78 62.46 201.74 51.94 201.74 52.12"/><polygon class="cls-28" points="201.74 52.29 188.78 62.81 188.78 62.64 201.74 52.12 201.74 52.29"/><polygon class="cls-55" points="201.74 52.47 188.78 62.99 188.78 62.81 201.74 52.29 201.74 52.47"/><polygon class="cls-53" points="201.74 52.65 188.78 63.16 188.78 62.99 201.74 52.47 201.74 52.65"/><polygon class="cls-54" points="201.74 52.82 188.78 63.34 188.78 63.16 201.74 52.65 201.74 52.82"/><polygon class="cls-52" points="201.74 53 188.78 63.52 188.78 63.34 201.74 52.82 201.74 53"/><polygon class="cls-84" points="201.74 53.17 188.78 63.69 188.78 63.52 201.74 53 201.74 53.17"/><polygon class="cls-41" points="201.74 53.35 188.78 63.87 188.78 63.69 201.74 53.17 201.74 53.35"/><polygon class="cls-41" points="188.78 63.87 201.74 53.35 201.74 65.16 188.78 65.16 188.78 63.87"/></g><path class="cls-136" d="m213.53,63.92c-1.5,4.41-3.53,8.71-4.67,13.22-.02,0,0,.14-.23.31-5.19-.56-10.45-.72-15.63-1.4,1.26-1.06,5.38-5.18,5.75-5.44,1.23-.84,12.57-5.79,14.77-6.69Z"/><path class="cls-66" d="m190.98,65.16c2.54,1.88,5.09,3.78,7.78,5.44-.38.26-4.5,4.38-5.75,5.44-.78-.1-1.62.09-2.41-.16-.85-4.01-1.45-8.18-1.63-12.29.66.54,1.34,1.05,2.02,1.56Z"/><path class="cls-35" d="m214.77,63.45c.09.24,3.18,3.75,3.42,3.89l.62.86c-1.6,1.39-9.22,8.6-9.95,8.94,1.14-4.51,3.17-8.8,4.67-13.22.06-.03.52-.48,1.24-.47Z"/><path class="cls-3" d="m210.73,46.34c2.38.38,4.76.56,7.15.78l.16.16,1.09,8.4-.16.47c-.74,1.61-3.6,5.24-4.04,6.38-.22.01-.15-.22-.16-.47,1.33-2.04,3.01-4.12,3.89-6.3-.16-.73-7.91-7.68-8.4-9.41.15.02.32-.02.47,0Z"/><path class="cls-4" d="m201.86,42.76c-.1.37.11,1.14-.31,1.71-2.02.96-5.17,3.77-3.42,1.94.05-.27-1.96.07-1.96.07l-3.1.94s.21.63-.86.47c.37-.52.72-1.04,1.09-1.56,2.57-.85,5.1-1.98,7.31-3.58.41.03.83-.02,1.24,0Z"/><path class="cls-47" d="m214.77,62.05c0,.24-.07.48.16.47-.18.46-.37.38-.16.93-.72-.01-1.18.44-1.24.47-2.2.9-13.54,5.84-14.77,6.69-2.69-1.66-5.24-3.56-7.78-5.44,1.52-2.1,2.93-4.34,4.2-6.61,0-.02-.24-.16-.16-.31.05-.09,1.02-1.29,1.24-1.71,1.99-3.73,3.76-7.71,5.44-11.59,4.2,4.25,8.77,8.14,13.53,11.74.05,1.82-.51,3.55-.47,5.37Z"/><path class="cls-3" d="m210.26,46.34c.49,1.72,8.24,8.68,8.4,9.41-.88,2.18-2.56,4.26-3.89,6.3-.04-1.82.52-3.55.47-5.37-4.77-3.6-9.33-7.49-13.53-11.74.02-.05-.01-.2,0-.31.58.27,7.32,1.52,8.55,1.71Z"/><path class="cls-35" d="m210.73,46.34c-.15-.02-.32.02-.47,0-1.24-.19-7.97-1.44-8.55-1.71-.01,0,.04-.17-.16-.16.43-.57.21-1.34.31-1.71.7-2.65,1.67-7.22,2.18-9.95,2.61,4.32,4.77,8.87,6.69,13.53Z"/><path class="cls-47" d="m217.88,47.12c-2.39-.21-4.78-.4-7.15-.78-1.92-4.66-4.08-9.22-6.69-13.53.17-.94.46-1.85.62-2.8.56.12,1.15.36,1.71.47.53,1.21,4.39,2.81,5.29,1.94.06-.06.56-1.14.78-1.48.48-.74.76-1.38,1.09-2.18.76-1.82.28-1.62.31-1.71.17-.52.79-1.52,1.24-1.87,2.64,3.85,5.75,7.43,8.4,11.28l-5.6,10.65Z"/><path class="cls-35" d="m207.62,30.48c.44.37.78.28,1.4.62.05.03.18-.01,1.09.47.04.02.3.69.7.62.33-.05.99-1.69,1.63-1.24-.22.34-.72,1.42-.78,1.48-.9.86-4.76-.73-5.29-1.94.36.07.93.21,1.24,0Z"/><path class="cls-10" d="m213.53,28.77c-1.09.97-2.63,1.59-3.42,2.8-.91-.48-1.04-.44-1.09-.47.76-.98,2.24-.86,2.8-2.18.49-.1,1.7-1.19,1.87-1.87h.16c-.03.09.45-.11-.31,1.71Z"/><path class="cls-95" d="m213.53,28.77c-.33.8-.61,1.44-1.09,2.18-.64-.45-1.31,1.19-1.63,1.24-.4.06-.66-.6-.7-.62.79-1.21,2.34-1.83,3.42-2.8Z"/><path class="cls-141" d="m202.8,16.01c.28.93-.83,3.42-1.4,5.13-2.79-.33-5.87-.06-8.63.47-8.83-.8-19.12.11-27.29,3.58l-3.81-2.33c-2.57.41-6.05.45-8.48.93-.66-.54,2.37-1.16,3.65-1.09-.79-.43,3.81-.84,2.88-1.4,5.96-1.68,11.61-4.29,17.81-5.13l.16-.31c6.31-.67,12.33-2.44,18.74-2.64,2.07,1.07,4.16,2.07,6.38,2.8Z"/><path class="cls-140" d="m201.4,21.15c-.73,2.22-1.53,4.44-2.18,6.69l-7.23-6.07c-1.03-.2-12.12,4.54-13.76,5.44.89-.98-.73-.47-1.32-.78-4.22.56-8.41.96-12.6,1.71-.46.08.24-.62-1.01.31.72-.95,1.55-2.73,2.18-3.27,8.17-3.47,18.46-4.38,27.29-3.58,2.76-.52,5.84-.8,8.63-.47Z"/><path class="cls-140" d="m178.22,27.21c-2.96,1.62-5.69,3.82-8.32,5.91h-.54c-3.23.26-6.34.92-9.49,1.56-7.19,1.44-3.88,1.24.16-2.64,1.44-1.12,2.19-2.15,3.27-3.58,1.26-.93.55-.23,1.01-.31,4.19-.75,8.37-1.15,12.6-1.71.59.31,2.21-.2,1.32.78Z"/><path class="cls-12" d="m160.03,32.03c-4.04,3.88-7.34,4.09-.16,2.64l7.62,5.91c-6.19-.11-12.35.55-18.51,1.09-.92.08-1.88.04-2.8.16.42-.5.17-.56,1.17-1.4,2.39-1.34,4.6-2.94,6.84-4.51.13-.09.8-.44.93-.16,1.08-1.35,3.14-2.7,4.67-3.89.01,0,.16.21.23.16Z"/><path class="cls-12" d="m165.47,25.19c-.62.53-1.46,2.32-2.18,3.27-1.08,1.42-1.83,2.45-3.27,3.58-.08.06-.22-.16-.23-.16-1.52,1.19-3.58,2.53-4.67,3.89-.14-.28-.81.07-.93.16-2.24,1.57-4.45,3.17-6.84,4.51-1,.84-.75.9-1.17,1.4-.58.68-3.92,5.77-4.28,5.75-.42.03.01-1.43.08-2.02.48-4.34,1.57-8.55,2.33-12.83l.31-.23,3.03-.47.39-.47c.76.58,2.25-.74,3.34-.78q6.65-2.99,13.3-5.99c-.76-.22-2.53-1.56-2.88-1.63-.69-.14-7.68.62-8.17.93l-.78-.31c.09-.02.22.02.31,0,2.43-.49,5.9-.52,8.48-.93l3.81,2.33Z"/><path class="cls-15" d="m152.87,23.79l.78.31-5.6,7.47-.39.47-3.03.47c.44-.5.84-1.02,1.24-1.56.65-.86,5.99-7.01,6.45-7.15.17-.02.38.04.54,0Z"/><path class="cls-15" d="m148.05,31.57l5.6-7.47c.48-.31,7.48-1.07,8.17-.93.35.07,2.12,1.41,2.88,1.63q-6.65,2.99-13.3,5.99c-1.1.03-2.58,1.36-3.34.78Z"/><g class="cls-143"><polygon class="cls-115" points="168.19 33.12 159.87 37.36 159.87 33.12 168.19 33.12"/><polygon class="cls-115" points="169.06 33.12 159.87 37.8 159.87 37.36 168.19 33.12 169.06 33.12"/><polygon class="cls-112" points="169.94 33.12 159.87 38.25 159.87 37.8 169.06 33.12 169.94 33.12"/><polygon class="cls-111" points="170.81 33.12 159.87 38.69 159.87 38.25 169.94 33.12 170.81 33.12"/><polygon class="cls-133" points="171.69 33.12 159.89 39.13 159.87 39.09 159.87 38.69 170.81 33.12 171.69 33.12"/><polygon class="cls-94" points="172.56 33.12 160.07 39.48 159.89 39.13 171.69 33.12 172.56 33.12"/><polygon class="cls-91" points="173.43 33.12 160.25 39.83 160.07 39.48 172.56 33.12 173.43 33.12"/><polygon class="cls-77" points="174.31 33.12 160.43 40.19 160.25 39.83 173.43 33.12 174.31 33.12"/><polygon class="cls-76" points="175.18 33.12 160.61 40.54 160.43 40.19 174.31 33.12 175.18 33.12"/><polygon class="cls-56" points="176.06 33.12 160.79 40.89 160.61 40.54 175.18 33.12 176.06 33.12"/><polygon class="cls-61" points="176.93 33.12 161.66 40.9 160.8 40.9 160.79 40.89 176.06 33.12 176.93 33.12"/><polygon class="cls-60" points="177.81 33.12 162.53 40.9 161.66 40.9 176.93 33.12 177.81 33.12"/><polygon class="cls-71" points="178.53 33.12 178.56 33.18 163.41 40.9 162.53 40.9 177.81 33.12 178.53 33.12"/><polygon class="cls-63" points="178.56 33.18 178.74 33.54 164.28 40.9 163.41 40.9 178.56 33.18"/><polygon class="cls-62" points="178.74 33.54 178.92 33.89 165.15 40.9 164.28 40.9 178.74 33.54"/><polygon class="cls-128" points="178.92 33.89 179.1 34.24 166.03 40.9 165.15 40.9 178.92 33.89"/><polygon class="cls-131" points="179.1 34.24 179.28 34.6 166.9 40.9 166.03 40.9 179.1 34.24"/><polygon class="cls-123" points="179.28 34.6 179.46 34.95 167.78 40.9 166.9 40.9 179.28 34.6"/><polygon class="cls-25" points="179.46 34.95 179.64 35.3 168.65 40.9 167.78 40.9 179.46 34.95"/><polygon class="cls-23" points="179.64 35.3 179.82 35.66 169.52 40.9 168.65 40.9 179.64 35.3"/><polygon class="cls-20" points="179.82 35.66 180 36.01 170.4 40.9 169.52 40.9 179.82 35.66"/><polygon class="cls-20" points="180 36.01 180.25 36.49 180.25 40.9 170.4 40.9 180 36.01"/></g><g class="cls-144"><polygon class="cls-30" points="199.22 22.57 168.87 26.77 168.87 21.57 199.22 21.57 199.22 22.57"/><polygon class="cls-30" points="199.22 22.97 168.87 27.17 168.87 26.77 199.22 22.57 199.22 22.97"/><polygon class="cls-34" points="199.22 23.36 168.87 27.56 168.87 27.17 199.22 22.97 199.22 23.36"/><polygon class="cls-31" points="199.22 23.76 168.87 27.96 168.87 27.56 199.22 23.36 199.22 23.76"/><polygon class="cls-49" points="199.22 24.15 168.87 28.35 168.87 27.96 199.22 23.76 199.22 24.15"/><polygon class="cls-40" points="199.22 24.55 168.87 28.75 168.87 28.35 199.22 24.15 199.22 24.55"/><polygon class="cls-21" points="199.22 24.94 168.87 29.14 168.87 28.75 199.22 24.55 199.22 24.94"/><polygon class="cls-18" points="199.22 25.34 168.87 29.54 168.87 29.14 199.22 24.94 199.22 25.34"/><polygon class="cls-22" points="199.22 25.73 168.87 29.93 168.87 29.54 199.22 25.34 199.22 25.73"/><polygon class="cls-37" points="199.22 26.12 168.87 30.32 168.87 29.93 199.22 25.73 199.22 26.12"/><polygon class="cls-125" points="199.22 26.52 168.87 30.72 168.87 30.32 199.22 26.12 199.22 26.52"/><polygon class="cls-130" points="199.22 26.91 168.87 31.11 168.87 30.72 199.22 26.52 199.22 26.91"/><polygon class="cls-67" points="199.22 27.31 168.87 31.51 168.87 31.11 199.22 26.91 199.22 27.31"/><polygon class="cls-70" points="199.22 27.7 168.87 31.9 168.87 31.51 199.22 27.31 199.22 27.7"/><polygon class="cls-58" points="199.22 28.1 168.87 32.3 168.87 31.9 199.22 27.7 199.22 28.1"/><polygon class="cls-73" points="199.22 28.49 168.87 32.69 168.87 32.3 199.22 28.1 199.22 28.49"/><polygon class="cls-75" points="199.22 28.89 168.87 33.09 168.87 32.69 199.22 28.49 199.22 28.89"/><polygon class="cls-93" points="199.22 29.28 168.87 33.48 168.87 33.09 199.22 28.89 199.22 29.28"/><polygon class="cls-135" points="199.22 29.68 168.87 33.88 168.87 33.48 199.22 29.28 199.22 29.68"/><polygon class="cls-121" points="199.22 30.07 168.87 34.27 168.87 33.88 199.22 29.68 199.22 30.07"/><polygon class="cls-113" points="199.22 30.47 168.87 34.67 168.87 34.27 199.22 30.07 199.22 30.47"/><polygon class="cls-126" points="199.22 30.86 168.87 35.06 168.87 34.67 199.22 30.47 199.22 30.86"/><polygon class="cls-117" points="199.22 31.26 168.87 35.46 168.87 35.06 199.22 30.86 199.22 31.26"/><polygon class="cls-110" points="199.22 31.65 168.87 35.85 168.87 35.46 199.22 31.26 199.22 31.65"/><polygon class="cls-102" points="199.22 32.04 168.87 36.24 168.87 35.85 199.22 31.65 199.22 32.04"/><polygon class="cls-78" points="199.22 32.44 168.87 36.64 168.87 36.24 199.22 32.04 199.22 32.44"/><polygon class="cls-82" points="199.22 32.83 168.87 37.03 168.87 36.64 199.22 32.44 199.22 32.83"/><polygon class="cls-51" points="199.22 33.23 168.87 37.43 168.87 37.03 199.22 32.83 199.22 33.23"/><polygon class="cls-99" points="199.22 33.62 168.87 37.82 168.87 37.43 199.22 33.23 199.22 33.62"/><polygon class="cls-85" points="199.22 34.02 168.87 38.22 168.87 37.82 199.22 33.62 199.22 34.02"/><polygon class="cls-43" points="199.22 34.41 168.87 38.61 168.87 38.22 199.22 34.02 199.22 34.41"/><polygon class="cls-100" points="199.22 34.81 168.87 39.01 168.87 38.61 199.22 34.41 199.22 34.81"/><polygon class="cls-69" points="199.22 35.2 168.87 39.4 168.87 39.01 199.22 34.81 199.22 35.2"/><polygon class="cls-92" points="199.22 35.6 168.87 39.8 168.87 39.4 199.22 35.2 199.22 35.6"/><polygon class="cls-97" points="199.22 35.99 168.87 40.19 168.87 39.8 199.22 35.6 199.22 35.99"/><polygon class="cls-17" points="199.22 36.39 168.87 40.59 168.87 40.19 199.22 35.99 199.22 36.39"/><polygon class="cls-89" points="199.22 36.78 168.87 40.98 168.87 40.59 199.22 36.39 199.22 36.78"/><polygon class="cls-101" points="199.22 37.17 168.94 41.36 168.87 41.36 168.87 40.98 199.22 36.78 199.22 37.17"/><polygon class="cls-101" points="168.94 41.36 199.22 37.17 199.22 41.36 168.94 41.36"/></g><path class="cls-104" d="m197.98,32.03s.02.23-.16.47c-.4.01-1.99.83-2.49,1.09-1.75-.37-13.77-.1-14.39-.47-.13-.08-.13-.39,0-.47.73-.44,15-.68,17.03-.62Z"/><path class="cls-12" d="m197.82,32.5c1.44.61,3.57.76,5.29.86.22.46-.83.58-1.48,1.01-2.07,1.38-4.09,2.87-6.14,4.28,1.18,1.12,4.12,3.44,3.58,3.97-.91-.08-1.82-.13-2.72-.31l-.39.31c0-.11.04-.28-.08-.31-1.57-.4-9.06-.76-11.59-.93,3.62-2.56,7.1-5.72,11.04-7.78.5-.26,2.08-1.07,2.49-1.09Z"/><path class="cls-12" d="m204.35,16.33c-.01.56,1.39.57,1.56,1.01.06.16-.13,2.99-.16,3.5-.02.43-.12.81-.16,1.24-.09,1.25-.17,2.66-.31,3.89,0,.03-.05-.17-.16.62-.15,1.14-.27,2.28-.47,3.42-.16.95-.45,1.86-.62,2.8-.5,2.74-1.48,7.3-2.18,9.95-.41-.02-.83.03-1.24,0-.52-.04-1.03-.11-1.56-.16.55-.52-2.39-2.85-3.58-3.97,2.06-1.41,4.07-2.89,6.14-4.28.65-.43,1.7-.55,1.48-1.01-1.72-.1-3.84-.24-5.29-.86.18-.24.14-.44.16-.47.73-1.39.82-2.74,1.24-4.2.65-2.24,1.44-4.47,2.18-6.69.57-1.72,1.68-4.21,1.4-5.13.54.18,1.2.19,1.56.31Z"/><path class="cls-15" d="m203.19,16.33c3.06,1.09,2.15,1.18,2.26,4.28-1.15.47-2.31.28-3.65.54l1.4-4.82Z"/><path class="cls-141" d="m207,16.95c1.71.59,4.39,1.92,5.44,3.42q-3.34.23-6.69.47c.03-.51.22-3.34.16-3.5-.17-.44-1.57-.46-1.56-1.01.43.15,1.48.22,2.64.62Z"/><path class="cls-142" d="m215.08,25.19c-.46.34-1.07,1.34-1.24,1.87h-.16l-.47-.47c.28-.1.42-.81.47-1.09.04-.25.33-.12.31-.23-.04-.24-2.1-3.54-2.41-4.12-1.27.36-2.31,1.2-3.19,2.18.16-1.34-2.42-.21-2.8-1.24.03-.43.13-.81.16-1.24q3.34-.23,6.69-.47c.25.36,1.58,3.27,2.64,4.82Z"/><path class="cls-142" d="m207.62,30.48c-.31.21-.88.07-1.24,0-.56-.11-1.15-.34-1.71-.47.19-1.14.32-2.28.47-3.42.89.73,1.76,3.26,2.49,3.89Z"/><path class="cls-109" d="m210.42,28.92c.18.04,1.21.04,1.4,0-.56,1.32-2.04,1.2-2.8,2.18-.62-.34-.96-.25-1.4-.62-.73-.63-1.6-3.16-2.49-3.89.1-.79.15-.59.16-.62,1.54-.35,4.05,2.73,5.13,2.95Z"/><path class="cls-140" d="m208.4,23.32c-.61.68-1.05,1.74-1.71,2.41,2.23-.35,2.04,1.81,3.73,2.72-.03.03.02.28,0,.47-1.09-.23-3.59-3.3-5.13-2.95.15-1.22.22-2.64.31-3.89.37,1.03,2.96-.09,2.8,1.24Z"/><path class="cls-26" d="m213.22,26.59l.47.47c-.17.67-1.37,1.77-1.87,1.87-.19.04-1.22.04-1.4,0,.02-.18-.03-.43,0-.47.1-.13,2.3-1.44,2.64-1.87.03,0,.12.01.16,0Z"/><path class="cls-12" d="m213.68,25.5c-2.27.03-.74,1.06-.62,1.09-.35.42-2.55,1.74-2.64,1.87-1.69-.91-1.5-3.07-3.73-2.72.66-.67,1.1-1.73,1.71-2.41.87-.98,1.91-1.82,3.19-2.18.31.58,2.38,3.89,2.41,4.12.02.11-.27-.01-.31.23Z"/><path class="cls-3" d="m213.68,25.5c-.05.28-.19.99-.47,1.09-.03.01-.12,0-.16,0-.12-.02-1.65-1.06.62-1.09Z"/><path class="cls-5" d="m210.34,22.24c1.61-.4.7,1.39-.47.93-.49-.19.4-.92.47-.93Z"/></g></svg>