<?xml version="1.0" encoding="UTF-8"?><svg id="Layer_2" xmlns="http://www.w3.org/2000/svg" viewBox="0 0 247.73 111.79"><defs><style>.cls-1{fill:none;}.cls-1,.cls-2,.cls-3,.cls-4,.cls-5{stroke-width:0px;}.cls-3{fill:#0a0b11;}.cls-4{fill:#c31312;}.cls-5{fill:#fff;}</style></defs><g id="Layer_1-2"><path class="cls-3" d="m6.52,65.57H0v-4.83h19.15v4.83h-6.5v35.65h-6.14v-35.65Z"/><path class="cls-3" d="m26.86,101.57c-1.04,0-2.09-.15-3.15-.46-1.06-.31-2.04-.94-2.93-1.88s-1.61-2.38-2.15-4.3c-.54-1.92-.81-4.49-.81-7.72v-5.12c0-3.18.28-5.69.83-7.55.55-1.86,1.28-3.24,2.18-4.15.9-.91,1.88-1.5,2.94-1.78,1.06-.28,2.09-.41,3.11-.41s1.99.13,3.03.39,2.01.84,2.89,1.73c.89.89,1.6,2.28,2.16,4.15.55,1.87.83,4.41.83,7.62v5.12c0,3.18-.28,5.72-.85,7.62-.57,1.91-1.3,3.34-2.2,4.31-.9.97-1.87,1.62-2.9,1.94-1.04.32-2.03.49-2.97.49Zm.05-4.46c1.07,0,1.82-.59,2.24-1.78.42-1.18.63-3.3.63-6.35v-8.13c0-3.07-.21-5.2-.63-6.4s-1.17-1.8-2.24-1.8-1.91.6-2.37,1.8-.69,3.33-.69,6.4v8.13c0,3.05.23,5.17.69,6.35.46,1.19,1.25,1.78,2.37,1.78Z"/><path class="cls-3" d="m46.41,101.6c-.55,0-1.22-.1-2-.31s-1.56-.68-2.32-1.43c-.77-.75-1.41-1.92-1.92-3.51-.51-1.59-.77-3.76-.77-6.53v-9.88c0-2.78.25-4.96.76-6.54.5-1.58,1.13-2.74,1.88-3.47.75-.73,1.51-1.2,2.26-1.4.76-.2,1.38-.3,1.87-.3,1.55,0,2.8.4,3.76,1.21s1.7,1.65,2.24,2.54l.57-3.39h4.67v43.21h-5.97v-8.7l.17-3.98c-.54.68-1.22,1.26-2.05,1.75-.83.49-1.88.73-3.14.73Zm2.04-4.88c.79,0,1.42-.24,1.9-.72.47-.48.84-1.02,1.09-1.62v-18.89c-.3-.65-.7-1.21-1.2-1.68-.5-.47-1.1-.71-1.81-.71-.58,0-1.1.16-1.55.47-.45.32-.81.9-1.07,1.75-.26.85-.39,2.09-.39,3.72v11.73c0,1.61.13,2.85.39,3.71.26.86.62,1.45,1.08,1.77s.98.47,1.56.47Z"/><path class="cls-3" d="m62.51,68.58h6v24.01c0,1.44.22,2.44.66,3,.44.56,1.09.84,1.94.84,1.26,0,2.36-.64,3.29-1.92v-25.93h6v32.64h-4.58l-.59-3.48h-.02c-.93,1.49-1.99,2.5-3.16,3.05-1.18.54-2.37.82-3.57.82-1.9,0-3.37-.67-4.41-2-1.04-1.33-1.56-3.34-1.56-6.01v-25.01Z"/><path class="cls-3" d="m84.75,87.85v-6.16c0-2.5.21-4.57.64-6.21.43-1.64.99-2.95,1.7-3.93.7-.98,1.48-1.71,2.32-2.18.84-.47,1.69-.79,2.52-.94.84-.15,1.6-.22,2.3-.22,1.44,0,2.77.3,3.98.91s2.19,1.65,2.93,3.13c.73,1.48,1.1,3.53,1.1,6.15,0,1.31-.07,2.65-.21,4.02-.14,1.37-.33,2.57-.57,3.62h-10.69v3.32c0,2.84.24,4.85.72,6.02.48,1.17,1.4,1.75,2.76,1.75.74,0,1.41-.32,2.02-.96.6-.64.9-1.82.9-3.54v-1.42h4.93v1.49c0,3.1-.74,5.35-2.22,6.77s-3.61,2.12-6.41,2.12-4.97-1.07-6.47-3.22c-1.5-2.15-2.25-5.65-2.25-10.5Zm11.9-5.85c.03-.35.06-.87.07-1.58.02-.7.02-1.27.02-1.69,0-2.17-.23-3.71-.69-4.65-.46-.93-1.18-1.41-2.18-1.42-1.06,0-1.84.53-2.35,1.6-.51,1.07-.76,3.01-.76,5.82v1.92h5.88Z"/><path class="cls-3" d="m115.73,101.57c-.98,0-2.05-.14-3.21-.43-1.16-.28-2.26-.88-3.31-1.78-1.04-.9-1.9-2.26-2.56-4.07-.66-1.81-1-4.23-1-7.27v-14.34c0-2.43.23-4.46.68-6.08s1.04-2.92,1.78-3.89c.74-.97,1.55-1.7,2.44-2.18.89-.48,1.79-.8,2.68-.95.89-.15,1.72-.22,2.48-.22,2.09,0,3.74.39,4.95,1.16s2.09,1.81,2.62,3.12.79,2.74.79,4.3c0,.87-.07,1.67-.2,2.41-.13.74-.29,1.54-.46,2.43h-4.74v-1.94c0-4.44-1.04-6.66-3.13-6.66-1.12,0-1.98.49-2.57,1.46-.59.97-.89,2.75-.89,5.34v18.25c0,2.51.3,4.23.89,5.14.59.92,1.51,1.38,2.76,1.38.87,0,1.59-.37,2.16-1.1.57-.73.85-1.92.85-3.54v-3.84h5.38v3.75c0,3.24-.72,5.64-2.16,7.21-1.44,1.56-3.52,2.35-6.23,2.35Z"/><path class="cls-3" d="m132.06,60.73h6.92l7.56,40.49h-6.16l-1.11-7.25h-7.49l-1.07,7.25h-6.19l7.54-40.49Zm6.49,28.61l-2.89-20.27h-.26l-2.92,20.27h6.07Z"/><path class="cls-3" d="m149.25,60.73h4.86l9.88,26.62h.14c-.06-.84-.15-1.77-.25-2.81s-.19-2.28-.27-3.73-.12-3.22-.12-5.31v-14.77h5.45v40.49h-4.91l-9.84-25.91h-.19c.08.95.17,1.98.26,3.1.09,1.12.18,2.54.26,4.24.08,1.71.12,3.93.12,6.66v11.9h-5.41v-40.49Z"/><path class="cls-1" d="m181.06,71.48c-.12-.86-.23-1.73-.33-2.6.09.87.2,1.73.33,2.6Z"/><path class="cls-1" d="m180.49,66.15c.06.9.14,1.79.24,2.69-.1-.9-.18-1.8-.24-2.69h0Z"/><path class="cls-1" d="m181.48,74.13c-.12-.7-.23-1.41-.34-2.11.11.71.21,1.41.34,2.11Z"/><path class="cls-5" d="m182.02,76.89c-.19-.91-.37-1.83-.54-2.75.16.92.34,1.84.54,2.75Z"/><path class="cls-5" d="m181.14,72.02c-.03-.18-.06-.36-.08-.54.03.18.06.36.08.54Z"/><path class="cls-5" d="m180.73,68.88s0-.02,0-.03c0,.01,0,.02,0,.03Z"/><path class="cls-3" d="m201.85,29.45c.1-.13,2.08-.77,2.64-1.87-.06.11-1.65-1.06.62-1.09.04-.25-.2-.91-.21-1.02-.04-.24-1.58-2.75-1.89-3.33-1.27.36-2.31,1.2-3.19,2.18-.61.68-1.05,1.74-1.71,2.41,2.23-.35,2.04,1.81,3.73,2.72Zm-.08-6.22c1.61-.4.7,1.39-.47.93-.49-.19.4-.92.47-.93Z"/><path class="cls-5" d="m201.3,24.16c1.17.46,2.08-1.33.47-.93-.06.02-.96.74-.47.93Z"/><path class="cls-4" d="m210,17.01l.08-.25-.08.25Z"/><path class="cls-5" d="m194.06,18.59h0s0,0,0,0Z"/><path class="cls-2" d="m247.26,98.5c-.17-.25-3.08-2.94-3.73-3.58-3.06-3-6.33-5.8-9.33-8.86-.01-1.61.02-3.21,0-4.82-.02-2.06.28-4.77-.31-5.13-.16-2.25-2.26-8.83-2.64-11.9-2.11-2.39-4.03-4.93-6.07-7.39-1.95-2.35-4.25-4.56-4.98-5.44-.36-.44-.64-.95-1.09-1.32l.62-9.8c-1.71-3.94-2.77-8.27-4.3-12.35l1.45-.83c1.43-.81,1.24-2.92,1.04-5.15-.09-1.06-.19-2.17-.1-3l.04-.34-.18-.29c-.84-1.35-1.58-1.89-2.52-2.57l-.43-.31c-.36-.27-.81-.36-1.15-.4-.13-.1-.3-.21-.49-.3-.26-.44-.55-.89-.92-1.32-.49-.55-.88-1.02-1.24-1.46-1.22-1.47-2.11-2.54-4.83-4.61l-.1-.13-.11-.14,1.03-1.02.02-.39c.17-3.88-.42-4.5-3.48-5.44-.15-.11-.32-.18-.51-.21-1.03-.12-3.96,2.2-4.16,2.8-.12.36-.08.72-.04,1.1.03.26.06.55.04.88-.01.23.05.41.1.52l.02.06c-.45.32-1.62,1.03-2.59,1.62-2.55,1.56-4.37,2.68-5.17,3.4-.83.15-1.52.26-2.1.35-2.03.31-3.26.5-4.07,2.18-.26.66-.21,1.31.12,1.78.16.22.5.57,1.13.64,1.08.53,2.55.96,3.97,1.38.9.27,1.74.52,2.38.76.37.14.74.28,1.18.43l.16.06c.09.03.19.05.28.07-.04.18-.08.36-.13.56-.11.38-.25.8-.4,1.23-.06.17-.12.34-.18.52l-.03.08c-.22.6-.44,1.2-.62,1.72-.73,2.22-1.53,4.44-2.18,6.69-.42,1.45-.51,2.79-1.23,4.17-5.57.03-27.14.3-41.43,2.79.82-.55,2.1-1.44,3.47-2.76,1.44-1.12,2.19-2.15,3.27-3.58.72-.95,1.55-2.73,2.18-3.27-1.91-1.17-1.1-.68-3.01-1.84,4.93-3.09,11.56-6.61,11.56-6.61,0,0,1.28-.72-2.03.21-7.4,2.09-19.67,6.84-19.67,6.84-.46.14-5.8,6.3-6.45,7.15-.4.53-.8,1.05-1.24,1.56q-.16.12-.31.23c-.76,4.28-1.85,8.5-2.33,12.83-.07.59-.49,2.05-.08,2.02.36.02,3.7-5.07,4.28-5.75.92-.11,1.88-.08,2.8-.16,6.16-.54,12.32-1.2,18.51-1.09-3.58-2.77-3.8-2.94-6.96-5.4,6.11-.84,13.06-1.36,19.39-1.68,3.59.15,12.53.09,14.97.33-3.15,1.72-6.02,4.11-8.92,6.29-3.73-.14-6.99-.16-6.99-.16l1.19.83,4.34.62s.11,0,.31-.02c2.91.18,9.58.53,11.06.9.12.03.08.21.08.31-.36.22-.91,1.02-1.44,1.85-.47.74-.92,1.49-1.2,1.88,1.53-.51,3.05-1.14,4.49-1.88.98-.5,1.93-1.05,2.82-1.69.41.03.83-.02,1.24,0,.7-2.65,1.67-7.22,2.18-9.95.17-.94.46-1.85.62-2.8.19-1.14.32-2.28.47-3.42.1-.79.15-.59.16-.62.15-1.22.22-2.64.31-3.89.03-.43.13-.81.16-1.24,0-.15.03-.48.05-.89.03-.43.06-.94.08-1.39.01-.2.02-.39.02-.56.03-.11.06-.19.09-.3.01,0,.03,0,.04,0,.2.05.41.11.63.19l.22.05c.39.04.86.12,1.39.23.35.08.73.17,1.12.27.43.11.9.26,1.36.4.2.14.4.27.58.41.18.14.33.29.49.43h0c.23.22.44.45.6.68.06.08.18.31.33.62.52,1.02,1.5,3.02,2.31,4.21,2.64,3.85,5.75,7.43,8.4,11.28l-5.6,10.65.16.16q.54,4.2,1.09,8.4-.08.23-.16.47c-.74,1.61-3.6,5.24-4.04,6.38-.18.46-.37.38-.16.93.09.24,3.18,3.75,3.42,3.89q.31.43.62.86c-1.6,1.39-9.22,8.6-9.95,8.94-.02,0,0,.14-.23.31-5.19-.56-10.45-.72-15.63-1.4-.78-.1-1.62.09-2.41-.16-.19-.91-.37-1.83-.54-2.75-.13-.7-.23-1.41-.34-2.11-.03-.18-.06-.36-.08-.54-.13-.86-.23-1.73-.33-2.6v-.03c-.1-.9-.18-1.8-.24-2.69-.04-.52-.08-1.04-.11-1.56-.17-3.94-.1-7.9.47-11.82q-.31.35-.62.7s0,.02-.02.03q-2.55,5.25-5.12,10.54c1.22,4.81,2.61,9.64,4.82,14.07,2.97,5.97,8.33,14.71,13.22,19.21q-.82,1.83-1.63,3.65-4.24,1.4-8.48,2.8c-1.27.53-8.91,2.6-9.25,2.95-.16.16-.04.43-.08.47.92.22,2.14.05,3.11,0,4.18-.23,27.8-1.72,29.24-2.02.15-.03,1.09-.32,1.09-.39-4.36-1.27-8.96-1.89-13.45-2.72-.37-.31-.17-.23,0-.47.17-.24,3.86-3.07,4.51-3.73q8.79.39,17.57.78c.71.77,1.87,2.1,2.1,3.11-3.91,1.32-7.74,3.36-11.66,4.35-1.39,1.11-3.37,1.55-4.98,2.49-2.05,1.2,1.43.52,4.51.31,5.04-.34,14.83-1.19,19.44-2.02,1.13-.21,2.92-.5,2.72-.78q-3.81-1.24-7.62-2.49c-.59-.53.59-4.95.78-5.91,2.31-.13,2.55-.84,4.59.16.24.12.51.32.78.47,1.42.76,9.11,5.68,9.88,5.75,3.05-1.08,6.2-2.13,9.1-3.58.36-.18,2.33-1.08,2.33-1.32-.55-.43-.44-.66-.47-.7ZM200.78,4.69c0-.4-.03-.74-.05-1l-.02-.14c.46-.4,1.48-1.18,2.02-1.47,2.21.66,2.32.73,2.23,3.09l-1.82,1.8c-.5-.07-1.03-.15-1.36-.24-.33-.08-.73-.24-1.08-.39.11-.22.19-.44.22-.68.04-.4-.05-.73-.12-.95Zm8.5,15.67c-.39-.18-.79-.35-1.19-.52-.58-.25-1.18-.48-1.77-.71-.5-.19-.99-.37-1.48-.55-.48-.17-.96-.33-1.43-.48-.72-.23-1.41-.43-2.06-.6-.42-.11-.83-.21-1.21-.29-.55-.12-1.05-.2-1.49-.25-.23-.08-.46-.14-.67-.2-.5-.13-.96-.21-1.33-.28-.23-.04-.42-.07-.54-.11-.25-.08-.52-.12-.8-.16-.27-.04-.54-.08-.84-.18l-.13-.05c-.35-.12-.7-.25-1.05-.38-.71-.27-1.59-.53-2.53-.81-1.35-.4-2.89-.86-3.82-1.34.26-.38.69-.49,2.4-.75.67-.1,1.49-.23,2.48-.42l.35-.07.23-.27c.42-.5,3.26-2.23,4.96-3.26,2.74-1.67,3.07-1.9,3.29-2.25.01-.02.02-.04.03-.05l1.99,1.06-.03.03.39.16,1.33.71s.05.06.08.09c.12.15.25.32.43.46.41.31.76.59,1.08.85,1.02,1.8,2.19,3.98,2.22,4.6l.09,1.56s2.02.24,1.76,1.12c-.17.57.08,2.53.27,3.82-.32-.16-.64-.31-.98-.47Z"/></g></svg>